<?xml version="1.0" encoding="utf-8"?>
<!-- Generator: Adobe Illustrator 15.0.0, SVG Export Plug-In . SVG Version: 6.00 Build 0)  -->
<!DOCTYPE svg PUBLIC "-//W3C//DTD SVG 1.1//EN" "http://www.w3.org/Graphics/SVG/1.1/DTD/svg11.dtd">
<svg version="1.1" id="Layer_1" xmlns="http://www.w3.org/2000/svg" xmlns:xlink="http://www.w3.org/1999/xlink" x="0px" y="0px"
	 width="100px" height="100px" viewBox="48.5 10 300 300" enable-background="new 48.5 10 300 300" xml:space="preserve">
<rect x="56" y="15.997" fill="none" width="288" height="288.007"/>
<g>
	<path d="M-21346.361-18067.363c3.074-0.996,5.246-3.746,5.508-6.965c0.256-3.219-1.447-6.277-4.32-7.758l-1010.467-519.039
		c-1.895-0.98-4.107-1.152-6.125-0.492l-1280,415.906c-3.076,0.996-5.246,3.746-5.506,6.965c-0.258,3.219,1.447,6.281,4.32,7.754
		l1010.469,519.043c1.139,0.59,2.393,0.883,3.656,0.883c0.832,0,1.668-0.133,2.471-0.395l248.576-80.801L-21346.361-18067.363z
		 M-22462.742-18073.625l-70.98,268.359l-92.818-24.547l64.771-244.875c0.617-2.34,0.145-4.832-1.285-6.781s-3.67-3.145-6.086-3.258
		l-697.738-31.445l4.336-95.922l721.99,32.535c3.742,0.121,7.133-2.313,8.096-5.945l69.377-262.348l92.818,24.547l-63.168,238.891
		c-0.617,2.34-0.145,4.832,1.285,6.781s3.668,3.145,6.086,3.258l683.176,30.777l-4.334,95.922l-707.434-31.898
		C-22458.467-18079.715-22461.783-18077.266-22462.742-18073.625z"/>
	<path d="M-21255.248-17992.535c-2.078-1.52-4.752-1.945-7.191-1.152l-123.299,40.031l-1194.656,388.195
		c-3.279,1.063-5.508,4.113-5.525,7.559l-7.492,1331.395l-1.275,225.277c-0.016,2.57,1.203,4.988,3.275,6.508
		c1.391,1.012,3.045,1.539,4.725,1.539c0.828,0,1.664-0.129,2.467-0.391l1317.951-428.223c3.279-1.066,5.512-4.117,5.529-7.566
		l8.77-1556.672C-21251.955-17988.602-21253.176-17991.016-21255.248-17992.535z M-21992.51-16989.512l-382.07-325.375
		l62.238-73.098l372.371,317.148c1.734,1.477,4.006,2.148,6.277,1.836c2.258-0.313,4.275-1.57,5.547-3.461l392.396-583.125
		l79.658,53.598l-399.508,593.684c-2.27,3.375-1.646,7.922,1.449,10.555l382.066,325.375l-62.262,73.098l-372.375-317.148
		c-1.734-1.48-4.02-2.145-6.275-1.836c-2.256,0.313-4.275,1.57-5.549,3.461l-392.363,583.152l-79.654-53.594l399.504-593.719
		C-21988.787-16982.328-21989.412-16986.875-21992.51-16989.512z"/>
	<path d="M-22686.234-17571.656l-1039.201-533.793c-2.467-1.27-5.426-1.164-7.801,0.273c-2.379,1.441-3.838,4.012-3.85,6.793
		l-8.736,1549.121c-0.02,3.016,1.664,5.785,4.342,7.16l1039.201,533.793c1.148,0.594,2.406,0.883,3.656,0.883
		c1.441,0,2.877-0.391,4.15-1.16c2.375-1.441,3.834-4.012,3.85-6.793l8.736-1549.121
		C-22681.873-17567.512-22683.549-17570.277-22686.234-17571.656z M-23154.553-17033.582l322.287,632.613l-85.549,43.555
		l-307.668-603.914c-1.139-2.238-3.266-3.809-5.742-4.25c-0.461-0.078-0.926-0.121-1.387-0.121c-2.01,0-3.965,0.758-5.459,2.152
		l-285.258,266.41l-65.533-70.195l308.813-288.363c2.605-2.438,3.285-6.301,1.668-9.477l-317.076-622.313l85.549-43.586
		l302.418,593.637c1.141,2.242,3.268,3.813,5.742,4.25c2.479,0.445,5.01-0.316,6.848-2.031l290.506-271.277l65.527,70.164
		l-314.025,293.262C-23155.494-17040.625-23156.174-17036.758-23154.553-17033.582z"/>
</g>
<path d="M343.011,226.269l-138.505-187.9c-0.801-1.079-2.049-1.731-3.386-1.76c-1.344-0.025-2.621,0.566-3.462,1.606L57.104,212.445
	c-0.816,1.011-1.133,2.336-0.867,3.609c0.269,1.276,1.098,2.355,2.256,2.95l124.436,63.923c0.614,0.316,1.292,0.467,1.978,0.467
	c0.448,0,0.899-0.066,1.334-0.204l154.624-50.24c1.324-0.429,2.354-1.466,2.784-2.794
	C344.07,228.832,343.837,227.386,343.011,226.269z M197.674,51.971l-14.967,221.114L67.174,213.744L197.674,51.971z
	 M187.875,273.559L202.95,50.835l129.539,175.737L187.875,273.559z"/>
</svg>
