<?xml version="1.0" encoding="utf-8"?>
<!-- Generator: Adobe Illustrator 15.0.0, SVG Export Plug-In . SVG Version: 6.00 Build 0)  -->
<!DOCTYPE svg PUBLIC "-//W3C//DTD SVG 1.1//EN" "http://www.w3.org/Graphics/SVG/1.1/DTD/svg11.dtd">
<svg version="1.1" id="Layer_1" xmlns="http://www.w3.org/2000/svg" xmlns:xlink="http://www.w3.org/1999/xlink" x="0px" y="0px"
	 width="100px" height="100px" viewBox="50 2 300 300" enable-background="new 50 2 300 300" xml:space="preserve">
<rect x="56" y="16" fill="none" width="287.997" height="288"/>
<path d="M343.392,84.8c-0.704-1.472-2.271-2.304-3.872-2.112L59.552,116.8c-1.504,0.192-2.752,1.248-3.168,2.72s0.064,3.04,1.248,4
	l49.728,40.16l7.552,70.272c0.16,1.309,0.96,2.464,2.144,3.036c0.544,0.225,1.088,0.353,1.632,0.353c0.736,0,1.472-0.224,2.08-0.64
	l42.304-28l29.952,24.195c1.504,1.215,3.68,1.088,5.024-0.256L342.656,89.12C343.776,88,344.096,86.24,343.392,84.8z
	 M69.376,123.232L309.952,93.92L113.12,158.592L69.376,123.232z M114.88,162.816L314.752,97.12L145.28,186.144
	c0,0.032-0.032,0.032-0.064,0.032c-0.032,0.035-0.096,0.067-0.16,0.096c0,0.032-0.032,0.067-0.064,0.067
	c-0.032,0.032-0.096,0.064-0.128,0.125c-0.032,0-0.064,0.035-0.096,0.067c-0.032,0.032-0.064,0.064-0.096,0.096
	c-0.032,0.032-0.064,0.064-0.064,0.093c-0.032,0.036-0.064,0.067-0.096,0.128c-0.032,0.035-0.064,0.067-0.064,0.096
	c-0.032,0-0.032,0.032-0.032,0.032l-22.88,37.536L114.88,162.816z M195.136,224.863l-29.312-23.871l-15.36-12.416L323.04,97.92
	L195.136,224.863z"/>
<text transform="matrix(1 0 0 1 39.999 367.999)" font-family="'Arial-BoldMT'" font-size="16">Created by Tinashe Mugayi</text>
<text transform="matrix(1 0 0 1 39.999 383.999)" font-family="'Arial-BoldMT'" font-size="16">from the Noun Project</text>
</svg>
