<?xml version="1.0" encoding="utf-8"?>
<!-- Generator: Adobe Illustrator 15.0.0, SVG Export Plug-In . SVG Version: 6.00 Build 0)  -->
<!DOCTYPE svg PUBLIC "-//W3C//DTD SVG 1.1//EN" "http://www.w3.org/Graphics/SVG/1.1/DTD/svg11.dtd">
<svg version="1.1" id="Layer_1" xmlns="http://www.w3.org/2000/svg" xmlns:xlink="http://www.w3.org/1999/xlink" x="0px" y="0px"
	 width="100px" height="100px" viewBox="50 6.5 300 300" enable-background="new 50 6.5 300 300" xml:space="preserve">
<rect x="56" y="16.006" fill="none" width="288" height="287.988"/>
<g>
	<path d="M272.787,38.733c-9.002,0-17.456,3.498-23.811,9.85c-6.35,6.352-9.85,14.81-9.85,23.814c0,9.004,3.5,17.465,9.85,23.817
		c6.354,6.352,14.813,9.85,23.811,9.85c9.012,0,17.469-3.501,23.824-9.85c6.349-6.352,9.85-14.813,9.85-23.817
		c0-9.005-3.501-17.462-9.85-23.814C290.256,42.23,281.802,38.733,272.787,38.733z M293.075,92.682
		c-5.411,5.405-12.611,8.384-20.288,8.384c-7.664,0-14.863-2.979-20.275-8.384c-5.404-5.405-8.381-12.608-8.381-20.282
		c0-7.667,2.977-14.87,8.381-20.278c5.412-5.408,12.611-8.387,20.275-8.387c7.674,0,14.873,2.979,20.288,8.387
		c5.405,5.405,8.381,12.608,8.381,20.278S298.48,87.273,293.075,92.682z"/>
	<path d="M312.589,32.608c-10.631-10.63-24.762-16.483-39.802-16.483c-15.023,0-29.162,5.853-39.789,16.483
		c-9.088,9.085-14.832,21.11-16.17,33.866c-1.205,11.443,1.149,23.059,6.65,33.065L72.147,250.871
		c-0.784,0.78-1.219,1.842-1.219,2.949c0,1.111,0.438,2.164,1.219,2.944l18.055,18.062c1.629,1.629,4.266,1.629,5.895,0l9.113-9.117
		l5.318,5.318l6.982,17.453c0.208,0.527,0.525,1.001,0.922,1.401l12.774,12.777c0.813,0.815,1.881,1.22,2.947,1.22
		c1.065,0,2.134-0.404,2.947-1.22l13.84-13.837c0.781-0.781,1.222-1.843,1.222-2.95c0-1.11-0.441-2.163-1.222-2.944l-9.827-9.834
		l5.363-5.359l9.828,9.824c0.784,0.783,1.843,1.219,2.947,1.219c1.107,0,2.167-0.436,2.947-1.219l14.058-14.061
		c1.629-1.629,1.629-4.266,0-5.895l-12.774-12.768c-0.4-0.407-0.874-0.721-1.401-0.926l-17.456-6.982l-5.318-5.321L247.99,122.925
		c7.674,3.77,16.189,5.747,24.807,5.747l0,0c15.023,0,29.155-5.853,39.789-16.48c10.633-10.627,16.479-24.758,16.479-39.795
		C329.068,57.37,323.219,43.238,312.589,32.608z M139.337,243.428c0.4,0.399,0.874,0.713,1.398,0.918l17.456,6.982l9.223,9.229
		l-8.164,8.16l-9.827-9.824c-0.781-0.781-1.84-1.226-2.947-1.226c-1.104,0-2.166,0.444-2.947,1.226l-11.261,11.262
		c-1.628,1.628-1.628,4.266,0,5.894l9.828,9.827l-7.946,7.942l-9.222-9.222l-6.982-17.459c-0.208-0.522-0.525-0.999-0.922-1.396
		l-8.333-8.332l22.31-22.314L139.337,243.428z M306.694,106.301c-9.05,9.056-21.095,14.042-33.895,14.042
		c-8.256,0-16.394-2.131-23.536-6.16c-1.632-0.918-3.674-0.64-4.995,0.682L133.802,225.331c-0.164,0.097-0.32,0.214-0.464,0.358
		l-33.203,33.207c-0.144,0.144-0.262,0.301-0.361,0.463l-6.624,6.621l-12.16-12.16l150.666-150.668
		c1.383-1.379,1.625-3.529,0.582-5.174c-11.85-18.752-9.049-43.767,6.656-59.475c9.057-9.056,21.095-14.045,33.895-14.045
		c12.813,0,24.852,4.989,33.907,14.045c9.05,9.053,14.045,21.094,14.045,33.897C320.736,85.207,315.744,97.248,306.694,106.301z"/>
</g>
</svg>
