<?xml version="1.0" encoding="utf-8"?>
<!-- Generator: Adobe Illustrator 15.0.0, SVG Export Plug-In . SVG Version: 6.00 Build 0)  -->
<!DOCTYPE svg PUBLIC "-//W3C//DTD SVG 1.1//EN" "http://www.w3.org/Graphics/SVG/1.1/DTD/svg11.dtd">
<svg version="1.1" id="Layer_1" xmlns="http://www.w3.org/2000/svg" xmlns:xlink="http://www.w3.org/1999/xlink" x="0px" y="0px"
	 width="100px" height="100px" viewBox="50 12 300 300" enable-background="new 50 12 300 300" xml:space="preserve">
<rect x="56" y="16" fill="none" width="288" height="288"/>
<path d="M343.882,23.133c-0.08-0.685-0.426-1.312-0.957-1.738l-4.051-3.245c-1.12-0.896-2.749-0.717-3.646,0.4l-48.967,61.126
	c-2.348-0.707-4.824-1.085-7.355-1.085c-0.682,0-1.363,0.032-2.039,0.08l-27.693-60.009c-0.294-0.63-0.813-1.111-1.455-1.351
	c-0.644-0.233-1.363-0.208-1.98,0.08l-4.715,2.173c-1.299,0.598-1.868,2.141-1.267,3.44l27.056,58.64
	c-3.632,1.965-6.773,4.819-9.133,8.4c-15.312-0.406-30.595-0.663-45.481-0.752c-4.474-0.029-9.008-0.042-13.472-0.042
	c-4.467,0-9.002,0.013-13.469,0.042c-40.045,0.24-81.533,1.635-123.312,4.157c-1.312,0.077-2.352,1.126-2.432,2.425l-0.022,0.253
	c-1.226,14.445-6.979,91.354,0.022,187.231c0.099,1.297,1.136,2.324,2.429,2.407c7.523,0.458,15.254,0.89,23.024,1.286v13.2
	c0,1.427,1.162,2.592,2.592,2.592h222.336c1.431,0,2.595-1.161,2.595-2.592v-13.2c7.77-0.396,15.501-0.832,23.024-1.286
	c1.293-0.083,2.333-1.11,2.426-2.407c7.001-95.878,1.244-172.787,0.025-187.231l-0.025-0.253c-0.08-1.299-1.12-2.349-2.433-2.425
	c-11.442-0.688-23.001-1.302-34.406-1.824c-1.475-2.643-3.389-4.96-5.606-6.876l47.831-59.709
	C343.757,24.502,343.949,23.817,343.882,23.133z M212.4,258.742l53.094-53.098c-0.394,13.98-1.318,27.939-2.768,41.824
	c-0.368,3.376-4.225,7.12-7.776,7.555C240.551,256.723,226.445,257.961,212.4,258.742z M204.676,259.129
	c-9.761,0.433-19.518,0.646-29.332,0.646c-13.155,0-26.195-0.383-39.292-1.161l126.547-126.547c0.058,0.224,0.093,0.445,0.118,0.662
	c2.275,21.699,3.258,43.575,2.938,65.421L204.676,259.129z M95.798,255.033c-3.568-0.438-7.427-4.182-7.786-7.549
	c-1.5-14.156-2.445-28.391-2.832-42.633l84.365-84.365c1.933-0.016,3.866-0.025,5.805-0.025c26.495,0,52.534,1.564,79.591,4.787
	c0.595,0.074,1.193,0.237,1.788,0.474L124.605,257.837C115.085,257.107,105.507,256.18,95.798,255.033z M85.2,174.688l53.197-53.19
	c7.075-0.4,14.134-0.682,21.206-0.851l-74.598,74.595C84.941,188.394,85.005,181.536,85.2,174.688z M130.576,121.978l-45.107,45.107
	c0.486-11.476,1.331-22.935,2.541-34.339c0.358-3.351,4.202-7.065,7.75-7.498C107.52,123.846,119.085,122.758,130.576,121.978z
	 M305.188,261.775c-7.137,0-12.944-5.801-12.944-12.947c0-7.135,5.805-12.946,12.944-12.946c7.143,0,12.95,5.808,12.95,12.946
	C318.138,255.975,312.333,261.775,305.188,261.775z M323.882,204.688c0,0.961-0.774,1.731-1.731,1.731h-32.307
	c-0.957,0-1.732-0.771-1.732-1.731v-3.455c0-0.954,0.775-1.731,1.732-1.731h32.307c0.957,0,1.731,0.777,1.731,1.731V204.688z
	 M323.882,170.541V174c0,0.96-0.774,1.728-1.731,1.728h-32.307c-0.957,0-1.732-0.768-1.732-1.728v-3.459
	c0-0.951,0.775-1.728,1.732-1.728h32.307C323.107,168.813,323.882,169.59,323.882,170.541z M306,113.456
	c7.136,0,12.944,5.808,12.944,12.95c0,7.136-5.805,12.944-12.944,12.944c-7.143,0-12.943-5.808-12.943-12.944
	C293.057,119.264,298.857,113.456,306,113.456z"/>
</svg>
