<?xml version="1.0" encoding="utf-8"?>
<!-- Generator: Adobe Illustrator 15.0.0, SVG Export Plug-In . SVG Version: 6.00 Build 0)  -->
<!DOCTYPE svg PUBLIC "-//W3C//DTD SVG 1.1//EN" "http://www.w3.org/Graphics/SVG/1.1/DTD/svg11.dtd">
<svg version="1.1" id="Layer_1" xmlns="http://www.w3.org/2000/svg" xmlns:xlink="http://www.w3.org/1999/xlink" x="0px" y="0px"
	 width="100px" height="100px" viewBox="50 10 300 300" enable-background="new 50 10 300 300" xml:space="preserve">
<rect x="56" y="16" fill="none" width="288" height="288"/>
<path d="M343.933,23.088c-0.076-0.688-0.419-1.312-0.963-1.741l-4.045-3.245c-1.12-0.896-2.749-0.717-3.645,0.4l-48.985,61.149
	c-2.355-0.71-4.826-1.085-7.363-1.085c-0.682,0-1.363,0.032-2.039,0.083L249.19,18.608c-0.291-0.624-0.81-1.11-1.456-1.347
	c-0.643-0.237-1.359-0.208-1.987,0.077l-4.707,2.176c-1.3,0.602-1.866,2.141-1.267,3.443l27.068,58.659
	c-3.639,1.968-6.787,4.825-9.146,8.406c-15.314-0.41-30.602-0.666-45.494-0.755c-4.47-0.025-9.001-0.042-13.475-0.042
	s-9.005,0.016-13.476,0.042c-40.058,0.243-81.562,1.642-123.354,4.157c-1.318,0.08-2.355,1.13-2.432,2.422l-0.022,0.259
	c-1.226,14.448-6.982,91.386,0.022,187.296c0.096,1.296,1.133,2.327,2.429,2.397c7.523,0.467,15.257,0.898,23.027,1.295v13.201
	c0,1.434,1.162,2.598,2.595,2.598h222.419c1.431,0,2.596-1.162,2.596-2.598v-13.201c7.77-0.396,15.507-0.828,23.023-1.295
	c1.293-0.07,2.337-1.102,2.433-2.397c7.005-95.914,1.251-172.851,0.02-187.296l-0.02-0.259c-0.08-1.296-1.12-2.342-2.433-2.422
	c-11.449-0.688-23.004-1.299-34.412-1.821c-1.481-2.646-3.396-4.966-5.613-6.88l47.847-59.731
	C343.812,24.458,344.007,23.773,343.933,23.088z M262.749,247.504c-0.368,3.379-4.228,7.12-7.782,7.559
	c-27.069,3.193-53.113,4.748-79.629,4.748c-26.518,0-52.553-1.555-79.578-4.742c-3.571-0.441-7.43-4.182-7.792-7.559
	c-4.044-38.072-4.044-76.697,0-114.774c0.362-3.354,4.202-7.069,7.754-7.498c27.065-3.226,53.11-4.793,79.616-4.793
	c26.508,0,52.551,1.571,79.616,4.791c3.565,0.432,7.424,4.144,7.789,7.485C266.736,170.803,266.736,209.424,262.749,247.504z
	 M321.449,204.704c0,0.96-0.78,1.728-1.73,1.728h-32.32c-0.95,0-1.731-0.768-1.731-1.728v-3.46c0-0.953,0.781-1.728,1.731-1.728
	h32.32c0.95,0,1.73,0.774,1.73,1.728V204.704z M319.719,168.822c0.95,0,1.73,0.771,1.73,1.731v3.453c0,0.963-0.78,1.731-1.73,1.731
	h-32.32c-0.95,0-1.731-0.768-1.731-1.731v-3.453c0-0.96,0.781-1.731,1.731-1.731H319.719z"/>
</svg>
