<?xml version="1.0" encoding="utf-8"?>
<!-- Generator: Adobe Illustrator 15.0.0, SVG Export Plug-In . SVG Version: 6.00 Build 0)  -->
<!DOCTYPE svg PUBLIC "-//W3C//DTD SVG 1.1//EN" "http://www.w3.org/Graphics/SVG/1.1/DTD/svg11.dtd">
<svg version="1.1" id="Layer_1" xmlns="http://www.w3.org/2000/svg" xmlns:xlink="http://www.w3.org/1999/xlink" x="0px" y="0px"
	 width="100px" height="100px" viewBox="50 2 300 300" enable-background="new 50 2 300 300" xml:space="preserve">
<rect x="56.15" y="16" fill="none" width="288" height="288"/>
<path d="M344.294,103.795c0-0.029,0-0.061-0.006-0.096c-0.007-0.064-0.013-0.131-0.025-0.195c-0.02-0.169-0.058-0.342-0.105-0.509
	c-0.045-0.169-0.106-0.333-0.183-0.493c0-0.003,0-0.006,0-0.013c-0.039-0.074-0.074-0.141-0.112-0.211
	c-0.156-0.301-0.355-0.583-0.595-0.832c-0.026-0.029-0.058-0.061-0.087-0.086c-0.038-0.048-0.086-0.089-0.138-0.131
	c-0.058-0.061-0.125-0.112-0.188-0.164c-0.007-0.003-0.007-0.003-0.007-0.003c-0.217-0.167-0.451-0.311-0.707-0.429
	c-0.063-0.029-0.125-0.061-0.195-0.083c-0.063-0.029-0.131-0.051-0.195-0.07c-0.066-0.029-0.131-0.045-0.201-0.064
	c-0.067-0.019-0.131-0.035-0.201-0.051l-53.619-11.763l9.43-38.534c0.263-1.091,0.032-2.243-0.643-3.14
	c-0.676-0.896-1.719-1.446-2.839-1.494l-95.405-4.045c-1.741-0.08-3.296,1.056-3.77,2.729l-9.597,34.141l-37.207-12.407
	c-0.682-0.224-1.408-0.256-2.105-0.073L58.826,87.805c-0.026,0.006-0.055,0.016-0.08,0.022s-0.051,0.013-0.077,0.022
	c-0.074,0.019-0.144,0.045-0.218,0.07c-0.006,0-0.01,0.003-0.016,0.003c-0.08,0.029-0.157,0.067-0.237,0.099
	c-0.08,0.035-0.157,0.077-0.237,0.118c-0.006,0.003-0.016,0.01-0.025,0.013c-0.064,0.038-0.128,0.077-0.192,0.115
	c-0.01,0.003-0.016,0.01-0.026,0.02c-0.073,0.042-0.141,0.093-0.208,0.141c-0.07,0.058-0.141,0.112-0.211,0.17
	c-0.061,0.054-0.122,0.108-0.183,0.169c-0.009,0.013-0.025,0.025-0.042,0.042c-0.054,0.058-0.109,0.115-0.16,0.173
	c-0.061,0.067-0.118,0.138-0.173,0.211c-0.051,0.067-0.099,0.135-0.141,0.208c-0.006,0.007-0.013,0.013-0.013,0.02
	c-0.105,0.157-0.192,0.33-0.266,0.499c-0.026,0.061-0.055,0.125-0.077,0.186c-0.026,0.064-0.048,0.131-0.067,0.199
	c-0.016,0.061-0.035,0.122-0.048,0.179c-0.006,0.009-0.006,0.022-0.006,0.032c-0.016,0.051-0.029,0.105-0.039,0.157
	c-0.016,0.067-0.025,0.125-0.035,0.192c-0.013,0.061-0.019,0.131-0.026,0.188c-0.009,0.067-0.009,0.128-0.013,0.195
	C56.003,91.309,56,91.376,56,91.434c0,0.086,0.003,0.169,0.01,0.256c0.003,0.07,0.009,0.144,0.022,0.218
	c0.003,0.051,0.016,0.105,0.025,0.153c0.003,0.042,0.006,0.08,0.019,0.119c0.003,0.039,0.013,0.08,0.022,0.119
	c0.006,0.019,0.01,0.044,0.016,0.064c0.003,0.025,0.013,0.054,0.022,0.08c0.006,0.026,0.013,0.055,0.019,0.08
	c0.019,0.077,0.045,0.147,0.07,0.218c0,0.006,0.003,0.01,0.006,0.016c0.029,0.08,0.064,0.157,0.096,0.237
	c0.032,0.07,0.067,0.141,0.105,0.208c0.093,0.179,0.202,0.342,0.32,0.499c0.032,0.048,0.067,0.09,0.105,0.134
	c0.051,0.061,0.105,0.122,0.16,0.179c0.032,0.032,0.064,0.064,0.096,0.099c0.006,0.003,0.01,0.01,0.013,0.013
	c0.051,0.044,0.1,0.096,0.144,0.134c0.154,0.134,0.32,0.256,0.493,0.358c0.067,0.045,0.134,0.083,0.205,0.122
	c0.064,0.035,0.128,0.064,0.195,0.093c0.019,0.016,0.038,0.025,0.061,0.035l0.016,0.003l42.016,18.585L60.56,157.642
	c-0.896,0.999-1.19,2.394-0.778,3.664c0.41,1.273,1.472,2.227,2.781,2.509l45.613,9.782l5.84,66.08
	c0.134,1.521,1.174,2.807,2.627,3.258l115.546,35.521c0.361,0.111,0.732,0.162,1.1,0.162c1.325,0,2.59-0.713,3.265-1.913
	l41.812-74.637c0.269-0.474,0.432-1.005,0.467-1.549l4-53.75l33.968,9.424c1.764,0.486,3.626-0.365,4.394-2.019l22.756-48.554
	c0.086-0.188,0.156-0.381,0.211-0.592c0.025-0.064,0.038-0.135,0.051-0.199c0.064-0.272,0.087-0.541,0.087-0.806
	C344.301,103.946,344.301,103.869,344.294,103.795z M112.448,166.845l-41.994-9.001l37.513-41.744l79.159,10.41l47.792,6.285
	l-30.512,53.763L112.448,166.845z M239.023,128.438c-0.111,0.096-0.217,0.205-0.313,0.323l-35.636-4.688L190.727,85.6l89.065,7.801
	L239.023,128.438z M288.807,52.727l-8.857,36.173l-88.081-7.712l9.046-32.188L288.807,52.727z M280.432,138.326
	c-0.467-0.131-0.95-0.169-1.424-0.112l-33.83-9.133l39.063-33.574l50.938,11.174l-19.418,41.443L280.432,138.326z M71.187,92.397
	l75.19-19.085l31.92,10.643l-69.731,25.034c-0.173-0.112-0.352-0.211-0.544-0.297L71.187,92.397z M115.565,172.105l89.51,19.194
	c0.157,0.032,0.313,0.044,0.474,0.044c0.793,0,1.543-0.419,1.949-1.132l3.356-5.914l24.195,4.976l-3.802,81.05l-109.994-33.812
	L115.565,172.105z M271.424,199.133l-35.293,62.992l2.17-46.288l35.488-48.55L271.424,199.133z"/>
</svg>
